<?xml version="1.0" encoding="utf-8"?>
<!-- Generator: Adobe Illustrator 25.0.0, SVG Export Plug-In . SVG Version: 6.00 Build 0)  -->
<svg version="1.1" id="Layer_1" xmlns="http://www.w3.org/2000/svg" xmlns:xlink="http://www.w3.org/1999/xlink" x="0px" y="0px"
	 viewBox="0 0 212.6 69" style="enable-background:new 0 0 212.6 69;" xml:space="preserve">
<style type="text/css">
	.st0{fill-rule:evenodd;clip-rule:evenodd;fill:#2E3192;}
	.st1{fill:#2E3192;}
</style>
<g>
	<polygon class="st0" points="13.9,17.3 20.8,17.3 36.7,38.3 36.7,17.3 44.1,17.3 44.1,51.4 39.2,51.3 	"/>
	<polygon class="st0" points="21.2,35.9 21.2,51.4 13.9,51.4 13.9,25.9 	"/>
	<polygon class="st1" points="74.6,17.3 81.5,17.3 97.4,38.2 97.4,17.3 104.8,17.3 104.8,51.4 98.4,51.4 81.9,29.7 81.9,51.4 
		74.6,51.4 	"/>
	<rect x="109.4" y="17.3" class="st1" width="7.5" height="34.1"/>
	<polygon class="st1" points="131.8,24.2 121.4,24.2 121.4,17.3 149.6,17.3 149.6,24.2 139.3,24.2 139.3,51.4 131.8,51.4 	"/>
	<polygon class="st1" points="164.5,24.2 154.2,24.2 154.2,17.3 182.4,17.3 182.4,24.2 172,24.2 172,51.4 164.5,51.4 	"/>
	<polygon class="st1" points="186.9,17.3 212.6,17.3 212.6,24 194.3,24 194.3,30.9 210.4,30.9 210.4,37.5 194.3,37.5 194.3,44.7 
		212.6,44.7 212.6,51.4 186.9,51.4 	"/>
	<path class="st0" d="M39.4,60.4c-3.2,1.6-6.7,2.5-10.5,2.5c-13,0-23.5-10.5-23.5-23.5v-25L0,7v32.7c0,16,12.9,28.9,28.9,28.9
		c5,0,9.8-1.3,13.9-3.6L39.4,60.4z"/>
	<path class="st0" d="M1.3,0l4.2,5.8h46.8v33.6c0,7.3-3.4,13.9-8.6,18.2l3.4,4.6c6.5-5.3,10.7-13.4,10.7-22.4V0H1.3z"/>
	<path class="st1" d="M77.5,68.8c-0.9-0.5-1.7-1.2-2.2-1.9c-0.5-0.8-0.8-1.6-0.8-2.6c0-1,0.3-1.8,0.8-2.6c0.5-0.8,1.2-1.4,2.2-1.9
		l0.3,0.5C77,60.8,76.4,61.4,76,62c-0.4,0.6-0.6,1.4-0.6,2.2c0,0.9,0.2,1.6,0.6,2.2c0.4,0.6,1,1.2,1.8,1.7L77.5,68.8z"/>
	<path class="st1" d="M79.4,59.9H82c0.6,0,1.1,0.1,1.6,0.3c0.5,0.2,0.9,0.4,1.2,0.8c0.4,0.3,0.6,0.7,0.8,1.2
		c0.2,0.4,0.3,0.9,0.3,1.5v0c0,0.5-0.1,1-0.3,1.5c-0.2,0.5-0.5,0.8-0.8,1.2c-0.3,0.3-0.8,0.6-1.2,0.8c-0.5,0.2-1,0.3-1.6,0.3h-2.6
		V59.9z M82,66.5c0.5,0,0.9-0.1,1.3-0.2c0.4-0.2,0.7-0.4,1-0.6c0.3-0.3,0.5-0.6,0.6-0.9c0.1-0.4,0.2-0.7,0.2-1.1v0
		c0-0.4-0.1-0.8-0.2-1.1c-0.1-0.4-0.3-0.7-0.6-0.9c-0.3-0.3-0.6-0.5-1-0.6c-0.4-0.2-0.8-0.2-1.3-0.2h-1.7v5.8H82z"/>
	<path class="st1" d="M88,64.9c0,0.3,0.1,0.5,0.2,0.8c0.1,0.2,0.3,0.4,0.4,0.6c0.2,0.2,0.4,0.3,0.6,0.4c0.2,0.1,0.4,0.1,0.7,0.1
		c0.4,0,0.7-0.1,1-0.2c0.3-0.1,0.5-0.3,0.7-0.6l0.5,0.5c-0.3,0.3-0.6,0.6-0.9,0.7c-0.4,0.2-0.8,0.3-1.3,0.3c-0.4,0-0.7-0.1-1.1-0.2
		c-0.3-0.1-0.6-0.3-0.9-0.6c-0.2-0.3-0.4-0.6-0.6-0.9c-0.1-0.3-0.2-0.7-0.2-1.2c0-0.4,0.1-0.8,0.2-1.1c0.1-0.3,0.3-0.7,0.5-0.9
		c0.2-0.3,0.5-0.5,0.8-0.6c0.3-0.1,0.7-0.2,1.1-0.2c0.4,0,0.8,0.1,1.1,0.2c0.3,0.1,0.6,0.4,0.8,0.6c0.2,0.3,0.4,0.6,0.5,0.9
		c0.1,0.4,0.2,0.7,0.2,1.1v0.1c0,0,0,0.1,0,0.2H88z M91.5,64.2c0-0.2-0.1-0.5-0.2-0.7c-0.1-0.2-0.2-0.4-0.3-0.6
		c-0.1-0.2-0.3-0.3-0.5-0.4c-0.2-0.1-0.4-0.2-0.7-0.2c-0.2,0-0.4,0.1-0.7,0.1c-0.2,0.1-0.4,0.2-0.5,0.4c-0.2,0.2-0.3,0.4-0.4,0.6
		c-0.1,0.2-0.2,0.5-0.2,0.7H91.5z"/>
	<path class="st1" d="M94.3,64.9c0,0.3,0.1,0.5,0.2,0.8c0.1,0.2,0.3,0.4,0.4,0.6c0.2,0.2,0.4,0.3,0.6,0.4c0.2,0.1,0.4,0.1,0.7,0.1
		c0.4,0,0.7-0.1,1-0.2c0.3-0.1,0.5-0.3,0.7-0.6l0.5,0.5c-0.3,0.3-0.6,0.6-0.9,0.7c-0.4,0.2-0.8,0.3-1.3,0.3c-0.4,0-0.7-0.1-1-0.2
		c-0.3-0.1-0.6-0.3-0.9-0.6c-0.2-0.3-0.4-0.6-0.6-0.9c-0.1-0.3-0.2-0.7-0.2-1.2c0-0.4,0.1-0.8,0.2-1.1c0.1-0.3,0.3-0.7,0.5-0.9
		c0.2-0.3,0.5-0.5,0.8-0.6c0.3-0.1,0.7-0.2,1-0.2c0.4,0,0.8,0.1,1.1,0.2c0.3,0.1,0.6,0.4,0.8,0.6c0.2,0.3,0.4,0.6,0.5,0.9
		c0.1,0.4,0.2,0.7,0.2,1.1v0.1c0,0,0,0.1,0,0.2H94.3z M97.8,64.2c0-0.2-0.1-0.5-0.2-0.7c-0.1-0.2-0.2-0.4-0.3-0.6
		c-0.1-0.2-0.3-0.3-0.5-0.4c-0.2-0.1-0.4-0.2-0.7-0.2c-0.2,0-0.4,0.1-0.7,0.1c-0.2,0.1-0.4,0.2-0.5,0.4c-0.2,0.2-0.3,0.4-0.4,0.6
		c-0.1,0.2-0.2,0.5-0.2,0.7H97.8z"/>
	<path class="st1" d="M100,61.8h0.8v0.9c0.1-0.1,0.2-0.3,0.3-0.4c0.1-0.1,0.2-0.2,0.4-0.3c0.1-0.1,0.3-0.2,0.5-0.2
		c0.2-0.1,0.4-0.1,0.6-0.1c0.4,0,0.8,0.1,1.1,0.3c0.3,0.2,0.5,0.5,0.6,0.8c0.1-0.1,0.2-0.3,0.3-0.4c0.1-0.1,0.3-0.2,0.4-0.3
		c0.1-0.1,0.3-0.2,0.5-0.2c0.2-0.1,0.4-0.1,0.7-0.1c0.6,0,1.1,0.2,1.5,0.6c0.4,0.4,0.5,0.9,0.5,1.6v3.4h-0.8v-3.2
		c0-0.5-0.1-0.9-0.4-1.2c-0.3-0.3-0.6-0.4-1-0.4c-0.2,0-0.4,0-0.6,0.1c-0.2,0.1-0.3,0.2-0.5,0.3c-0.1,0.1-0.2,0.3-0.3,0.5
		c-0.1,0.2-0.1,0.4-0.1,0.7v3.1h-0.8v-3.2c0-0.5-0.1-0.9-0.4-1.2c-0.2-0.3-0.6-0.4-1-0.4c-0.2,0-0.4,0-0.6,0.1
		c-0.2,0.1-0.3,0.2-0.5,0.4c-0.1,0.2-0.2,0.3-0.3,0.5c-0.1,0.2-0.1,0.4-0.1,0.7v3.1H100V61.8z"/>
	<path class="st1" d="M110.6,64.9c0,0.3,0.1,0.5,0.2,0.8c0.1,0.2,0.3,0.4,0.4,0.6c0.2,0.2,0.4,0.3,0.6,0.4c0.2,0.1,0.4,0.1,0.7,0.1
		c0.4,0,0.7-0.1,1-0.2c0.3-0.1,0.5-0.3,0.8-0.6l0.5,0.5c-0.3,0.3-0.6,0.6-0.9,0.7c-0.3,0.2-0.8,0.3-1.3,0.3c-0.4,0-0.7-0.1-1.1-0.2
		c-0.3-0.1-0.6-0.3-0.9-0.6c-0.3-0.3-0.4-0.6-0.6-0.9c-0.1-0.3-0.2-0.7-0.2-1.2c0-0.4,0.1-0.8,0.2-1.1c0.1-0.3,0.3-0.7,0.5-0.9
		c0.2-0.3,0.5-0.5,0.8-0.6c0.3-0.1,0.7-0.2,1-0.2c0.4,0,0.8,0.1,1.1,0.2c0.3,0.1,0.6,0.4,0.8,0.6c0.2,0.3,0.4,0.6,0.5,0.9
		c0.1,0.4,0.2,0.7,0.2,1.1v0.1c0,0,0,0.1,0,0.2H110.6z M114.1,64.2c0-0.2-0.1-0.5-0.2-0.7c-0.1-0.2-0.2-0.4-0.3-0.6
		c-0.1-0.2-0.3-0.3-0.5-0.4c-0.2-0.1-0.4-0.2-0.7-0.2c-0.2,0-0.5,0.1-0.7,0.1c-0.2,0.1-0.4,0.2-0.5,0.4c-0.2,0.2-0.3,0.4-0.4,0.6
		c-0.1,0.2-0.2,0.5-0.2,0.7H114.1z"/>
	<path class="st1" d="M118.6,67.4c-0.3,0-0.6-0.1-1-0.2c-0.3-0.1-0.6-0.3-0.8-0.6c-0.3-0.2-0.4-0.5-0.6-0.9
		c-0.1-0.4-0.2-0.8-0.2-1.2v0c0-0.4,0.1-0.8,0.2-1.2c0.1-0.4,0.3-0.6,0.6-0.9c0.2-0.2,0.5-0.4,0.8-0.6c0.3-0.1,0.6-0.2,1-0.2
		c0.3,0,0.5,0,0.7,0.1c0.2,0.1,0.4,0.1,0.6,0.3c0.2,0.1,0.3,0.2,0.5,0.4c0.1,0.1,0.3,0.3,0.4,0.4v-3.3h0.8v7.7h-0.8v-1.1
		c-0.1,0.2-0.2,0.3-0.4,0.5c-0.1,0.1-0.3,0.3-0.5,0.4c-0.2,0.1-0.4,0.2-0.6,0.3C119.1,67.4,118.8,67.4,118.6,67.4 M118.7,66.7
		c0.3,0,0.5-0.1,0.7-0.2c0.2-0.1,0.4-0.2,0.6-0.4c0.2-0.2,0.3-0.4,0.4-0.7c0.1-0.3,0.2-0.5,0.2-0.9v0c0-0.3,0-0.6-0.2-0.9
		c-0.1-0.3-0.3-0.5-0.4-0.7c-0.2-0.2-0.4-0.3-0.6-0.4c-0.2-0.1-0.5-0.1-0.7-0.1c-0.3,0-0.5,0-0.8,0.1c-0.2,0.1-0.4,0.2-0.6,0.4
		c-0.2,0.2-0.3,0.4-0.4,0.7c-0.1,0.3-0.1,0.6-0.1,0.9v0c0,0.3,0,0.6,0.1,0.9c0.1,0.3,0.2,0.5,0.4,0.7c0.2,0.2,0.4,0.3,0.6,0.4
		C118.2,66.6,118.5,66.7,118.7,66.7"/>
	<path class="st1" d="M128.3,67.4c-0.2,0-0.4,0-0.6-0.1c-0.2-0.1-0.4-0.1-0.5-0.3c-0.1-0.1-0.2-0.3-0.3-0.5
		c-0.1-0.2-0.1-0.4-0.1-0.7v-3.3H126v-0.7h0.8v-1.6h0.8v1.6h1.7v0.7h-1.7v3.2c0,0.3,0.1,0.6,0.3,0.7c0.2,0.1,0.4,0.2,0.7,0.2
		c0.1,0,0.3,0,0.4,0c0.1,0,0.3-0.1,0.4-0.1v0.7c-0.1,0.1-0.3,0.1-0.4,0.2C128.7,67.4,128.5,67.4,128.3,67.4"/>
	<path class="st1" d="M133.2,67.4c-0.4,0-0.8-0.1-1.1-0.2c-0.3-0.1-0.6-0.3-0.9-0.6c-0.3-0.2-0.4-0.6-0.6-0.9
		c-0.1-0.3-0.2-0.7-0.2-1.1v0c0-0.4,0.1-0.8,0.2-1.1c0.1-0.3,0.3-0.6,0.6-0.9c0.2-0.3,0.6-0.5,0.9-0.6c0.4-0.2,0.7-0.2,1.1-0.2
		c0.4,0,0.8,0.1,1.1,0.2c0.4,0.1,0.7,0.4,0.9,0.6c0.3,0.3,0.4,0.6,0.6,0.9c0.1,0.3,0.2,0.7,0.2,1.1v0c0,0.4-0.1,0.7-0.2,1.1
		c-0.1,0.3-0.3,0.6-0.6,0.9c-0.3,0.3-0.6,0.5-0.9,0.6C134,67.3,133.6,67.4,133.2,67.4 M133.2,66.7c0.3,0,0.6-0.1,0.8-0.2
		c0.2-0.1,0.4-0.3,0.6-0.5c0.2-0.2,0.3-0.4,0.4-0.7c0.1-0.3,0.1-0.5,0.1-0.8v0c0-0.3-0.1-0.6-0.2-0.8c-0.1-0.3-0.2-0.5-0.4-0.7
		c-0.2-0.2-0.4-0.3-0.6-0.5c-0.2-0.1-0.5-0.2-0.8-0.2c-0.3,0-0.6,0.1-0.8,0.2c-0.2,0.1-0.5,0.3-0.6,0.5c-0.2,0.2-0.3,0.4-0.4,0.7
		c-0.1,0.3-0.1,0.5-0.1,0.8v0c0,0.3,0.1,0.6,0.1,0.8c0.1,0.3,0.2,0.5,0.4,0.7c0.2,0.2,0.4,0.3,0.6,0.5
		C132.7,66.6,133,66.7,133.2,66.7"/>
	<path class="st1" d="M143.6,67.4c-0.3,0-0.5,0-0.7-0.1c-0.2-0.1-0.4-0.2-0.6-0.3c-0.2-0.1-0.3-0.2-0.5-0.4
		c-0.1-0.1-0.3-0.3-0.4-0.4v1h-0.8v-7.7h0.8v3.3c0.1-0.2,0.2-0.3,0.4-0.5c0.1-0.1,0.3-0.3,0.5-0.4c0.2-0.1,0.4-0.2,0.6-0.3
		c0.2-0.1,0.4-0.1,0.7-0.1c0.3,0,0.6,0.1,1,0.2c0.3,0.1,0.6,0.3,0.8,0.6c0.3,0.2,0.5,0.5,0.6,0.9c0.2,0.4,0.2,0.7,0.2,1.2v0
		c0,0.4-0.1,0.8-0.2,1.2c-0.1,0.4-0.3,0.6-0.6,0.9c-0.2,0.2-0.5,0.4-0.8,0.6C144.3,67.3,143.9,67.4,143.6,67.4 M143.5,66.7
		c0.3,0,0.5,0,0.7-0.1c0.2-0.1,0.4-0.2,0.6-0.4c0.2-0.2,0.3-0.4,0.4-0.7c0.1-0.3,0.2-0.6,0.2-0.9v0c0-0.3-0.1-0.6-0.2-0.9
		c-0.1-0.3-0.2-0.5-0.4-0.7c-0.2-0.2-0.4-0.3-0.6-0.4c-0.2-0.1-0.5-0.1-0.7-0.1c-0.3,0-0.5,0-0.7,0.1c-0.2,0.1-0.4,0.2-0.6,0.4
		c-0.2,0.2-0.3,0.4-0.4,0.7c-0.1,0.3-0.2,0.5-0.2,0.8v0c0,0.3,0,0.6,0.2,0.9c0.1,0.3,0.3,0.5,0.4,0.7c0.2,0.2,0.4,0.3,0.6,0.4
		C143,66.6,143.2,66.7,143.5,66.7"/>
	<path class="st1" d="M148.2,64.9c0,0.3,0.1,0.5,0.2,0.8c0.1,0.2,0.3,0.4,0.4,0.6c0.2,0.2,0.4,0.3,0.6,0.4c0.2,0.1,0.4,0.1,0.7,0.1
		c0.4,0,0.7-0.1,1-0.2c0.3-0.1,0.5-0.3,0.7-0.6l0.5,0.5c-0.3,0.3-0.6,0.6-0.9,0.7c-0.3,0.2-0.8,0.3-1.3,0.3c-0.4,0-0.7-0.1-1.1-0.2
		c-0.3-0.1-0.6-0.3-0.9-0.6c-0.2-0.3-0.4-0.6-0.6-0.9c-0.1-0.3-0.2-0.7-0.2-1.2c0-0.4,0.1-0.8,0.2-1.1c0.1-0.3,0.3-0.7,0.5-0.9
		c0.2-0.3,0.5-0.5,0.8-0.6c0.3-0.1,0.7-0.2,1.1-0.2c0.4,0,0.8,0.1,1.1,0.2c0.3,0.1,0.6,0.4,0.8,0.6c0.2,0.3,0.4,0.6,0.5,0.9
		c0.1,0.4,0.2,0.7,0.2,1.1v0.1c0,0,0,0.1,0,0.2H148.2z M151.7,64.2c0-0.2-0.1-0.5-0.2-0.7c-0.1-0.2-0.2-0.4-0.3-0.6
		c-0.1-0.2-0.3-0.3-0.5-0.4c-0.2-0.1-0.4-0.2-0.7-0.2c-0.2,0-0.4,0.1-0.7,0.1c-0.2,0.1-0.4,0.2-0.5,0.4c-0.2,0.2-0.3,0.4-0.4,0.6
		c-0.1,0.2-0.2,0.5-0.2,0.7H151.7z"/>
	<path class="st1" d="M160.2,67.4c-0.5,0-0.9-0.1-1.2-0.2c-0.4-0.1-0.7-0.3-1-0.6c-0.3-0.3-0.5-0.6-0.6-1c-0.1-0.4-0.2-0.9-0.2-1.4
		v-4.3h0.8v4.2c0,0.8,0.2,1.4,0.6,1.8c0.4,0.4,0.9,0.6,1.7,0.6c0.7,0,1.2-0.2,1.6-0.6c0.4-0.4,0.6-1,0.6-1.8v-4.3h0.8v4.2
		c0,0.5-0.1,1-0.2,1.4c-0.1,0.4-0.4,0.8-0.6,1c-0.3,0.3-0.6,0.5-1,0.6C161.1,67.3,160.7,67.4,160.2,67.4"/>
	<path class="st1" d="M165.1,61.8h0.8v1c0.2-0.3,0.4-0.6,0.7-0.8c0.3-0.2,0.7-0.3,1.1-0.3c0.3,0,0.6,0,0.9,0.2
		c0.3,0.1,0.5,0.3,0.6,0.5c0.2,0.2,0.3,0.4,0.4,0.7c0.1,0.3,0.1,0.6,0.1,0.9v3.4h-0.8v-3.2c0-0.5-0.1-0.9-0.4-1.2
		c-0.3-0.3-0.6-0.4-1.1-0.4c-0.2,0-0.5,0-0.7,0.1c-0.2,0.1-0.4,0.2-0.5,0.3c-0.2,0.2-0.3,0.3-0.3,0.5c-0.1,0.2-0.1,0.4-0.1,0.7v3.1
		h-0.8V61.8z"/>
	<path class="st1" d="M171.6,59.8h0.9v0.9h-0.9V59.8z M171.7,61.8h0.8v5.4h-0.8V61.8z"/>
	<polygon class="st1" points="173.9,61.8 174.8,61.8 176.6,66.4 178.4,61.8 179.3,61.8 176.9,67.3 176.2,67.3 	"/>
	<path class="st1" d="M181.1,64.9c0,0.3,0.1,0.5,0.2,0.8c0.1,0.2,0.2,0.4,0.4,0.6c0.2,0.2,0.4,0.3,0.6,0.4c0.2,0.1,0.4,0.1,0.7,0.1
		c0.4,0,0.7-0.1,1-0.2c0.3-0.1,0.5-0.3,0.7-0.6l0.5,0.5c-0.3,0.3-0.6,0.6-0.9,0.7c-0.4,0.2-0.8,0.3-1.3,0.3c-0.4,0-0.7-0.1-1.1-0.2
		c-0.3-0.1-0.6-0.3-0.9-0.6c-0.2-0.3-0.4-0.6-0.6-0.9c-0.1-0.3-0.2-0.7-0.2-1.2c0-0.4,0.1-0.8,0.2-1.1c0.1-0.3,0.3-0.7,0.5-0.9
		c0.2-0.3,0.5-0.5,0.8-0.6c0.3-0.1,0.7-0.2,1-0.2c0.4,0,0.8,0.1,1.1,0.2c0.3,0.1,0.6,0.4,0.8,0.6c0.2,0.3,0.4,0.6,0.5,0.9
		c0.1,0.4,0.2,0.7,0.2,1.1v0.1c0,0,0,0.1,0,0.2H181.1z M184.6,64.2c0-0.2-0.1-0.5-0.2-0.7c-0.1-0.2-0.2-0.4-0.3-0.6
		c-0.1-0.2-0.3-0.3-0.5-0.4c-0.2-0.1-0.4-0.2-0.7-0.2c-0.2,0-0.4,0.1-0.6,0.1c-0.2,0.1-0.4,0.2-0.5,0.4c-0.2,0.2-0.3,0.4-0.4,0.6
		c-0.1,0.2-0.2,0.5-0.2,0.7H184.6z"/>
	<path class="st1" d="M186.8,61.8h0.8v1.4c0.1-0.2,0.2-0.4,0.4-0.6c0.1-0.2,0.3-0.3,0.5-0.5c0.2-0.1,0.4-0.2,0.6-0.3
		c0.2-0.1,0.5-0.1,0.7-0.1v0.9h-0.1c-0.3,0-0.6,0.1-0.8,0.2c-0.3,0.1-0.5,0.3-0.7,0.5c-0.2,0.2-0.4,0.5-0.5,0.8
		c-0.1,0.3-0.2,0.7-0.2,1.1v2.2h-0.8V61.8z"/>
	<path class="st1" d="M192.9,67.4c-0.4,0-0.8-0.1-1.2-0.2c-0.4-0.1-0.8-0.3-1.1-0.6l0.4-0.6c0.3,0.2,0.6,0.4,0.9,0.5
		c0.3,0.1,0.6,0.2,1,0.2c0.3,0,0.6-0.1,0.8-0.2c0.2-0.1,0.3-0.4,0.3-0.6v0c0-0.1,0-0.3-0.1-0.3c-0.1-0.1-0.2-0.2-0.3-0.3
		c-0.1-0.1-0.3-0.1-0.4-0.2c-0.2-0.1-0.3-0.1-0.5-0.2c-0.2-0.1-0.4-0.1-0.6-0.2c-0.2-0.1-0.4-0.2-0.6-0.3c-0.2-0.1-0.3-0.3-0.4-0.4
		c-0.1-0.2-0.2-0.4-0.2-0.6v0c0-0.2,0-0.4,0.1-0.6c0.1-0.2,0.2-0.4,0.4-0.5c0.2-0.1,0.4-0.2,0.6-0.3c0.2-0.1,0.5-0.1,0.7-0.1
		c0.3,0,0.7,0.1,1,0.2c0.3,0.1,0.7,0.3,0.9,0.4l-0.4,0.6c-0.3-0.2-0.5-0.3-0.8-0.4c-0.3-0.1-0.6-0.1-0.8-0.1c-0.3,0-0.6,0.1-0.8,0.2
		c-0.2,0.1-0.3,0.3-0.3,0.6v0c0,0.1,0,0.2,0.1,0.3c0.1,0.1,0.2,0.2,0.3,0.3c0.1,0.1,0.3,0.1,0.4,0.2c0.2,0.1,0.3,0.1,0.5,0.2
		c0.2,0.1,0.4,0.1,0.6,0.2c0.2,0.1,0.4,0.2,0.6,0.3c0.2,0.1,0.3,0.3,0.4,0.4c0.1,0.2,0.2,0.4,0.2,0.6v0c0,0.3,0,0.5-0.2,0.7
		c-0.1,0.2-0.2,0.4-0.4,0.5c-0.2,0.1-0.4,0.2-0.6,0.3C193.4,67.4,193.2,67.4,192.9,67.4"/>
	<path class="st1" d="M196.4,59.8h0.9v0.9h-0.9V59.8z M196.4,61.8h0.8v5.4h-0.8V61.8z"/>
	<path class="st1" d="M201,67.4c-0.2,0-0.4,0-0.6-0.1c-0.2-0.1-0.4-0.1-0.5-0.3c-0.1-0.1-0.2-0.3-0.3-0.5c-0.1-0.2-0.1-0.4-0.1-0.7
		v-3.3h-0.8v-0.7h0.8v-1.6h0.8v1.6h1.7v0.7h-1.7v3.2c0,0.3,0.1,0.6,0.3,0.7c0.2,0.1,0.4,0.2,0.7,0.2c0.1,0,0.3,0,0.4,0
		c0.1,0,0.3-0.1,0.4-0.1v0.7c-0.1,0.1-0.3,0.1-0.4,0.2C201.3,67.4,201.2,67.4,201,67.4"/>
	<path class="st1" d="M204.2,69c-0.2,0-0.4,0-0.6-0.1c-0.2,0-0.4-0.1-0.5-0.2l0.3-0.6c0.1,0.1,0.3,0.1,0.4,0.1c0.1,0,0.3,0,0.5,0
		c0.2,0,0.5-0.1,0.6-0.2c0.2-0.1,0.3-0.4,0.5-0.8l-2.5-5.4h0.9l2,4.5l1.8-4.5h0.9l-2.3,5.6c-0.2,0.6-0.5,1-0.8,1.2
		C205,68.9,204.6,69,204.2,69"/>
	<path class="st1" d="M209.3,68.2c0.8-0.5,1.4-1.1,1.8-1.7c0.4-0.6,0.6-1.4,0.6-2.2c0-0.9-0.2-1.6-0.6-2.2c-0.4-0.7-1-1.2-1.8-1.7
		l0.4-0.5c0.9,0.5,1.7,1.2,2.2,1.9c0.5,0.8,0.8,1.6,0.8,2.6s-0.3,1.8-0.8,2.6c-0.5,0.7-1.2,1.4-2.2,1.9L209.3,68.2z"/>
</g>
</svg>
